<svg width="463" height="177" viewBox="0 0 463 177" fill="none" xmlns="http://www.w3.org/2000/svg">
<path d="M116.6 101.1C116.6 102.967 116.6 105.067 116.6 107.4C116.667 109.733 116.7 112.167 116.7 114.7C116.7 117.167 116.7 119.633 116.7 122.1C116.7 124.5 116.667 126.733 116.6 128.8C116.533 129.8 116.433 130.9 116.3 132.1C116.167 133.233 115.9 134.3 115.5 135.3C115.1 136.3 114.467 137.133 113.6 137.8C112.8 138.4 111.7 138.667 110.3 138.6C108.233 138.467 106.733 137.567 105.8 135.9C104.933 134.233 104.433 131.9 104.3 128.9C104.3 127.367 104.267 125.6 104.2 123.6C104.2 121.6 104.167 119.567 104.1 117.5C104.1 115.433 104.1 113.433 104.1 111.5C104.1 109.5 104.1 107.7 104.1 106.1C104.1 105.167 104.067 104.033 104 102.7C104 101.367 104.033 100 104.1 98.6C104.167 97.2 104.333 95.8667 104.6 94.6C104.867 93.2667 105.3 92.1667 105.9 91.3C106.367 90.7667 107.033 90.3667 107.9 90.1C108.767 89.7667 109.667 89.6 110.6 89.6C111.6 89.6 112.533 89.7667 113.4 90.1C114.333 90.4333 115 90.9 115.4 91.5C115.667 91.9 115.867 92.4667 116 93.2C116.133 93.9333 116.233 94.7667 116.3 95.7C116.433 96.5667 116.5 97.5 116.5 98.5C116.567 99.4333 116.6 100.3 116.6 101.1ZM112.8 80.9C110.733 81.4333 109 81.2333 107.6 80.3C106.267 79.3 105.433 77.8333 105.1 75.9C104.833 74.5 104.933 73.2667 105.4 72.2C105.867 71.1333 106.567 70.3333 107.5 69.8C108.433 69.2 109.5 68.9333 110.7 69C111.9 69.0667 113.1 69.5333 114.3 70.4C115.433 71.2 116.233 72.1333 116.7 73.2C117.233 74.2667 117.4 75.3 117.2 76.3C117.067 77.3 116.633 78.2333 115.9 79.1C115.167 79.9 114.133 80.5 112.8 80.9ZM126.561 103.3C126.561 101.767 126.528 100.133 126.461 98.4C126.461 96.6667 126.761 95.1 127.361 93.7C127.894 92.4333 128.761 91.5333 129.961 91C131.228 90.4 132.461 90.2667 133.661 90.6C134.861 90.8 135.794 91.1667 136.461 91.7C137.128 92.2333 137.594 92.8667 137.861 93.6C138.194 94.2667 138.394 95.0667 138.461 96C138.528 96.8667 138.594 97.7333 138.661 98.6C139.328 97.4 140.161 96.4333 141.161 95.7C142.161 94.9667 143.194 94.3667 144.261 93.9C145.328 93.4333 146.328 93.1 147.261 92.9C148.261 92.7 149.028 92.6 149.561 92.6C152.094 92.6 154.594 93.1667 157.061 94.3C159.594 95.3667 161.694 96.9 163.361 98.9C164.294 100.1 164.994 101.367 165.461 102.7C165.994 103.967 166.361 105.3 166.561 106.7C166.828 108.1 166.994 109.533 167.061 111C167.128 112.4 167.194 113.833 167.261 115.3C167.594 119.567 167.594 123.8 167.261 128C167.194 128.867 167.161 129.867 167.161 131C167.161 132.133 167.061 133.267 166.861 134.4C166.728 135.467 166.428 136.433 165.961 137.3C165.561 138.1 164.861 138.6 163.861 138.8C162.461 139.133 161.294 139.2 160.361 139C159.494 138.867 158.794 138.567 158.261 138.1C157.728 137.633 157.328 137.033 157.061 136.3C156.794 135.567 156.561 134.733 156.361 133.8C156.228 133.067 156.094 132.233 155.961 131.3C155.894 130.3 155.828 129.3 155.761 128.3C155.761 127.3 155.728 126.333 155.661 125.4C155.661 124.4 155.661 123.5 155.661 122.7C155.661 121.433 155.628 120.033 155.561 118.5C155.494 116.967 155.494 115.533 155.561 114.2C155.561 111.067 154.728 108.7 153.061 107.1C151.461 105.433 149.261 104.733 146.461 105C144.328 105.267 142.461 106.133 140.861 107.6C139.261 109 138.494 110.833 138.561 113.1C138.561 113.967 138.561 114.767 138.561 115.5C138.561 116.233 138.528 116.967 138.461 117.7C138.461 118.433 138.461 119.233 138.461 120.1C138.461 120.967 138.461 121.933 138.461 123C138.461 125.2 138.461 127.533 138.461 130C138.461 132.4 138.161 134.367 137.561 135.9C137.028 137.5 136.128 138.6 134.861 139.2C133.594 139.8 132.094 139.633 130.361 138.7C129.628 138.3 129.028 137.767 128.561 137.1C128.161 136.367 127.828 135.6 127.561 134.8C127.361 134 127.228 133.2 127.161 132.4C127.094 131.533 127.028 130.733 126.961 130C126.761 127.8 126.628 125.767 126.561 123.9C126.561 121.967 126.561 119.9 126.561 117.7V103.3ZM206.782 69.1C208.049 68.7667 209.149 68.7333 210.082 69C211.082 69.2 211.915 69.6333 212.582 70.3C213.315 70.9667 213.849 71.8 214.182 72.8C214.582 73.8 214.782 74.9 214.782 76.1C214.849 79.4333 214.849 82.0333 214.782 83.9C214.782 85.7667 214.782 87.4 214.782 88.8V119.5C214.782 123.1 214.782 126.1 214.782 128.5C214.782 130.9 214.649 132.867 214.382 134.4C214.182 135.867 213.782 136.967 213.182 137.7C212.649 138.433 211.815 138.933 210.682 139.2C209.549 139.533 208.049 139.7 206.182 139.7C204.382 139.7 202.115 139.7 199.382 139.7C192.182 139.7 186.482 138 182.282 134.6C178.149 131.2 175.949 125.8 175.682 118.4C175.549 115.2 175.949 112.267 176.882 109.6C177.815 106.933 179.182 104.667 180.982 102.8C182.849 100.867 185.115 99.4 187.782 98.4C190.515 97.3333 193.615 96.8333 197.082 96.9H202.582V79C202.582 77.9333 202.582 76.9 202.582 75.9C202.582 74.8333 202.682 73.8667 202.882 73C203.082 72.0667 203.482 71.2667 204.082 70.6C204.682 69.9333 205.582 69.4333 206.782 69.1ZM189.382 124.6C190.782 126.533 193.315 127.6 196.982 127.8C197.715 127.867 198.415 127.9 199.082 127.9C199.749 127.833 200.349 127.733 200.882 127.6C201.482 127.533 202.049 127.433 202.582 127.3V108.8C200.249 108.4 198.115 108.167 196.182 108.1C194.315 107.967 192.449 108.633 190.582 110.1C189.582 110.9 188.815 111.933 188.282 113.2C187.749 114.4 187.449 115.7 187.382 117.1C187.315 118.433 187.449 119.767 187.782 121.1C188.115 122.433 188.649 123.6 189.382 124.6ZM235.748 93.8C237.948 92.7333 240.248 91.9667 242.648 91.5C245.048 91.0333 247.414 90.9333 249.748 91.2C252.148 91.4667 254.448 92.1 256.648 93.1C258.914 94.1 260.981 95.5 262.848 97.3C264.381 98.8333 265.714 100.7 266.848 102.9C267.981 105.033 268.814 107.133 269.348 109.2C270.481 112.867 270.648 116.567 269.848 120.3C269.048 124.033 267.681 127.5 265.748 130.7C264.814 132.167 263.648 133.5 262.248 134.7C260.914 135.833 259.481 136.767 257.948 137.5C255.948 138.433 253.781 139.067 251.448 139.4C249.114 139.8 246.848 139.9 244.648 139.7C240.648 139.5 237.114 138.5 234.048 136.7C231.048 134.9 228.614 132.6 226.748 129.8C224.948 127 223.748 123.833 223.148 120.3C222.614 116.7 222.848 113.033 223.848 109.3C224.914 105.3 226.448 102.067 228.448 99.6C230.514 97.0667 232.948 95.1333 235.748 93.8ZM238.748 107.2C237.748 108.133 236.981 109.3 236.448 110.7C235.914 112.1 235.581 113.567 235.448 115.1C235.314 116.567 235.414 118.067 235.748 119.6C236.148 121.067 236.748 122.4 237.548 123.6C238.214 124.6 239.414 125.433 241.148 126.1C242.881 126.767 244.681 127.167 246.548 127.3C248.681 127.433 250.548 126.867 252.148 125.6C253.748 124.267 254.948 122.633 255.748 120.7C256.614 118.767 257.014 116.667 256.948 114.4C256.881 112.133 256.281 110.067 255.148 108.2C254.348 106.867 253.214 105.9 251.748 105.3C250.348 104.633 248.848 104.3 247.248 104.3C245.714 104.233 244.181 104.467 242.648 105C241.114 105.467 239.814 106.2 238.748 107.2ZM278.416 103.6C278.416 102.8 278.416 101.9 278.416 100.9C278.416 99.8333 278.45 98.7667 278.516 97.7C278.583 96.5667 278.683 95.5 278.816 94.5C279.016 93.4333 279.283 92.5 279.616 91.7C280.15 90.5 280.983 89.7 282.116 89.3C283.25 88.8333 284.483 88.6333 285.816 88.7C287.216 88.7 288.316 88.9333 289.116 89.4C289.916 89.8667 290.516 90.5 290.916 91.3C291.316 92.0333 291.55 92.9 291.616 93.9C291.75 94.8333 291.816 95.8333 291.816 96.9C292.416 95.8333 293.216 94.9667 294.216 94.3C295.283 93.6333 296.35 93.1 297.416 92.7C298.483 92.3 299.45 92.0333 300.316 91.9C301.183 91.7 301.683 91.6 301.816 91.6C303.483 91.4667 304.983 91.4333 306.316 91.5C307.716 91.5667 309.25 91.8667 310.916 92.4C311.983 92.8 313.083 93.3667 314.216 94.1C315.35 94.7667 316.35 95.5667 317.216 96.5C318.083 97.4333 318.65 98.4667 318.916 99.6C319.25 100.667 319.116 101.8 318.516 103C317.583 104.667 316.55 105.5 315.416 105.5C314.283 105.433 313.05 105.233 311.716 104.9C310.983 104.767 310.116 104.467 309.116 104C308.116 103.533 307.25 103.233 306.516 103.1C304.25 102.767 302.25 102.933 300.516 103.6C298.783 104.267 297.283 105.067 296.016 106C294.55 107.133 293.283 108.433 292.216 109.9V124.3C292.216 126.1 292.183 127.967 292.116 129.9C292.116 131.833 291.85 133.6 291.316 135.2C290.85 136.733 290.016 138 288.816 139C287.683 139.933 286.016 140.333 283.816 140.2C282.616 140.133 281.55 139.567 280.616 138.5C279.683 137.367 279.116 136.267 278.916 135.2C278.783 134.2 278.683 133 278.616 131.6C278.55 130.2 278.483 128.733 278.416 127.2C278.416 125.667 278.416 124.133 278.416 122.6C278.416 121 278.416 119.533 278.416 118.2V103.6ZM332.888 96.9C334.888 95.9 336.988 95.2 339.188 94.8C341.388 94.3333 343.554 94.2333 345.688 94.5C347.888 94.7 349.988 95.2667 351.988 96.2C353.988 97.0667 355.854 98.3333 357.588 100C359.321 101.733 360.654 103.633 361.588 105.7C362.521 107.767 363.188 110.067 363.588 112.6C363.854 114.333 364.288 115.933 364.888 117.4C365.488 118.867 366.121 120.333 366.788 121.8C367.521 123.267 368.188 124.733 368.788 126.2C369.454 127.667 369.988 129.2 370.388 130.8C370.721 132.333 370.587 133.833 369.987 135.3C369.454 136.7 368.321 137.567 366.588 137.9C365.588 138.1 364.621 138.033 363.688 137.7C362.821 137.3 362.021 136.767 361.288 136.1C360.554 135.367 359.888 134.6 359.288 133.8C358.754 132.933 358.254 132.133 357.788 131.4C356.254 133.4 354.588 134.967 352.788 136.1C350.988 137.167 348.821 137.867 346.288 138.2C344.154 138.467 342.121 138.533 340.188 138.4C338.254 138.267 336.188 137.9 333.988 137.3C331.121 136.567 328.754 135.3 326.888 133.5C325.088 131.633 323.688 129.5 322.688 127.1C321.754 124.633 321.254 122 321.188 119.2C321.121 116.4 321.454 113.633 322.188 110.9C323.121 107.3 324.521 104.367 326.388 102.1C328.254 99.8333 330.421 98.1 332.888 96.9ZM335.388 108.6C334.454 109.533 333.721 110.633 333.188 111.9C332.654 113.167 332.321 114.5 332.188 115.9C332.121 117.3 332.254 118.7 332.588 120.1C332.921 121.5 333.454 122.733 334.188 123.8C334.854 124.733 335.988 125.533 337.588 126.2C339.188 126.8 340.854 127.167 342.588 127.3C344.588 127.433 346.321 126.9 347.788 125.7C349.321 124.5 350.454 123 351.188 121.2C351.988 119.333 352.354 117.367 352.288 115.3C352.221 113.167 351.654 111.233 350.588 109.5C349.788 108.233 348.721 107.3 347.388 106.7C346.121 106.1 344.754 105.8 343.288 105.8C341.821 105.733 340.354 105.967 338.888 106.5C337.488 106.967 336.321 107.667 335.388 108.6Z" fill="#9542BE"/>
<rect x="53.5" y="60.5" width="345" height="104" rx="12.5" stroke="#9542BE"/>
<rect y="31" width="93" height="94" rx="17" fill="#9542BE"/>
<path d="M17.6 115V45H27.2V76.5H45.4C48.2 76.5 50.7667 76 53.1 75C55.4333 73.9333 57.2667 72.4 58.6 70.4C60 68.3333 60.7 65.9 60.7 63.1V45H70.2V63C70.2 67.6 69.0333 71.6 66.7 75C64.3667 78.3333 61.2667 80.8667 57.4 82.6L66.5 103.4C66.9667 104.467 67.5333 105.267 68.2 105.8C68.8667 106.267 69.8 106.5 71 106.5H76V115H69.5C66.5667 115 64.1333 114.367 62.2 113.1C60.3333 111.767 58.8667 109.933 57.8 107.6L47.8 84.8C47 84.8667 46.2333 84.9333 45.5 85C44.7667 85 43.9667 85 43.1 85H27.2V115H17.6Z" fill="white"/>
</svg>
